<?xml version="1.0" encoding="UTF-8" standalone="no"?>
<!-- Created with Inkscape (http://www.inkscape.org/) -->

<svg
   version="1.1"
   id="svg2"
   width="889.89331"
   height="250.8"
   viewBox="0 0 889.89331 250.8"
   sodipodi:docname="thinking_industry_new_slogan_inverted.svg"
   inkscape:version="1.2.2 (732a01da63, 2022-12-09)"
   xmlns:inkscape="http://www.inkscape.org/namespaces/inkscape"
   xmlns:sodipodi="http://sodipodi.sourceforge.net/DTD/sodipodi-0.dtd"
   xmlns="http://www.w3.org/2000/svg"
   xmlns:svg="http://www.w3.org/2000/svg">
  <defs
     id="defs6" />
  <sodipodi:namedview
     id="namedview4"
     pagecolor="#ffffff"
     bordercolor="#000000"
     borderopacity="0.25"
     inkscape:showpageshadow="2"
     inkscape:pageopacity="0.0"
     inkscape:pagecheckerboard="0"
     inkscape:deskcolor="#d1d1d1"
     showgrid="false"
     inkscape:zoom="2.1930884"
     inkscape:cx="572.02436"
     inkscape:cy="119.23824"
     inkscape:window-width="3840"
     inkscape:window-height="2071"
     inkscape:window-x="2991"
     inkscape:window-y="-9"
     inkscape:window-maximized="1"
     inkscape:current-layer="g8" />
  <g
     id="g8"
     inkscape:groupmode="layer"
     inkscape:label="ink_ext_XXXXXX"
     transform="matrix(1.3333333,0,0,-1.3333333,0,250.8)">
    <path
       d="M 14.9711,0 H 25.2039 V 59.3539 H 14.9711 V 0"
       style="fill:#ffffff;fill-opacity:1;fill-rule:nonzero;stroke:none;stroke-width:0.1"
       id="path12" />
    <path
       d="M 46.6941,59.3539 V 0 H 56.9273 L 56.9242,59.3539 H 46.6941"
       style="fill:#ffffff;fill-opacity:1;fill-rule:nonzero;stroke:none;stroke-width:0.1"
       id="path14" />
    <path
       d="M 84.4723,59.3539 V 17.482 L 63.0711,50.0148 V 32.5988 L 84.4723,0 h 10.234 v 59.3539 h -10.234"
       style="fill:#ffffff;fill-opacity:1;fill-rule:nonzero;stroke:none;stroke-width:0.1"
       id="path16" />
    <path
       d="m 130.521,0 h 16.118 c 7.419,0 12.621,4.17891 12.621,12.1949 V 47.159 c 0,8.016 -5.202,12.1949 -12.621,12.1949 h -16.118 v -9.6367 h 15.947 c 1.279,0 1.876,-0.9383 1.876,-2.3871 V 12.1102 c 0,-1.5352 -0.597,-2.47426 -1.876,-2.47426 H 130.521 V 0"
       style="fill:#ffffff;fill-opacity:1;fill-rule:nonzero;stroke:none;stroke-width:0.1"
       id="path18" />
    <path
       d="m 114.148,0 h 10.233 V 59.3539 H 114.148 V 0"
       style="fill:#ffffff;fill-opacity:1;fill-rule:nonzero;stroke:none;stroke-width:0.1"
       id="path20" />
    <path
       d="m 196.681,9.63711 h -7.233 c -1.279,0 -1.876,0.93789 -1.876,2.47309 V 59.3539 H 176.657 V 12.1949 C 176.657,4.17891 182.285,0 189.278,0 h 7.403 v 9.63711"
       style="fill:#ffffff;fill-opacity:1;fill-rule:nonzero;stroke:none;stroke-width:0.1"
       id="path22" />
    <path
       d="m 222.846,12.1949 v 47.159 h -10.83 V 12.1102 c 0,-1.5352 -0.597,-2.47309 -1.962,-2.47309 h -7.232 V 0 h 7.488 c 7.419,0 12.536,4.17891 12.536,12.1949"
       style="fill:#ffffff;fill-opacity:1;fill-rule:nonzero;stroke:none;stroke-width:0.1"
       id="path24" />
    <path
       d="m 264.663,0 h 6.242 c 7.419,0 12.621,4.17891 12.621,12.1949 v 10.0629 c 0,8.016 -4.65,12.1094 -12.068,12.1094 h -21.153 l 0.047,12.9629 c 0,1.4488 0.597,2.3871 1.877,2.3871 h 6.259 v 9.6367 h -6.43 c -6.993,0 -12.621,-4.1789 -12.621,-12.1949 V 36.9262 c 0,-8.0172 6.181,-12.1953 13.174,-12.1953 h 19.927 l 0.157,-12.6207 c 0,-1.5352 -0.682,-2.47426 -1.961,-2.47426 h -6.071 V 0"
       style="fill:#ffffff;fill-opacity:1;fill-rule:nonzero;stroke:none;stroke-width:0.1"
       id="path26" />
    <path
       d="m 272.998,42.2129 h 10.575 v 4.9461 c 0,8.016 -4.861,12.1949 -12.281,12.1949 h -6.668 V 49.718 h 6.498 c 1.279,0 1.876,-0.9391 1.876,-2.3879 v -5.1172"
       style="fill:#ffffff;fill-opacity:1;fill-rule:nonzero;stroke:none;stroke-width:0.1"
       id="path28" />
    <path
       d="m 252.778,0 h 5.749 v 9.63594 h -5.493 c -1.365,0 -1.962,0.93906 -1.962,2.47426 v 4.6046 H 240.498 V 12.1949 C 240.498,4.17891 245.359,0 252.778,0"
       style="fill:#ffffff;fill-opacity:1;fill-rule:nonzero;stroke:none;stroke-width:0.1"
       id="path30" />
    <path
       d="M 296.231,59.3539 V 49.718 h 16.288 V 0 h 10.233 v 49.718 h 16.374 v 9.6359 h -42.895"
       style="fill:#ffffff;fill-opacity:1;fill-rule:nonzero;stroke:none;stroke-width:0.1"
       id="path32" />
    <path
       d="m 385.855,0 h 12.622 l -17.309,22.2578 h 4.69 c 7.419,0 12.621,4.0934 12.621,12.1094 V 47.159 c 0,8.016 -5.202,12.1949 -12.621,12.1949 h -16.117 v -9.6367 h 17.824 V 31.8941 H 369.741 V 21.234 L 385.855,0"
       style="fill:#ffffff;fill-opacity:1;fill-rule:nonzero;stroke:none;stroke-width:0.1"
       id="path34" />
    <path
       d="m 353.368,0 h 10.233 V 59.3539 H 353.368 V 0"
       style="fill:#ffffff;fill-opacity:1;fill-rule:nonzero;stroke:none;stroke-width:0.1"
       id="path36" />
    <path
       d="M 445.98,59.3539 433.529,37.2672 420.397,59.3539 h -11.94 L 428.412,27.1191 V 0 h 10.319 v 27.1191 l 18.421,32.2348 H 445.98"
       style="fill:#ffffff;fill-opacity:1;fill-rule:nonzero;stroke:none;stroke-width:0.1"
       id="path38" />
    <path
       d="M 474.604,59.3551 V 0.00117188 h 10.233 L 484.853,59.3309 v 0.0242 h -10.249"
       style="fill:#ffffff;fill-opacity:1;fill-rule:nonzero;stroke:none;stroke-width:0.1"
       id="path40" />
    <path
       d="M 512.382,59.3551 V 17.4832 L 491,49.9879 V 32.5719 L 512.382,0.00117188 h 10.233 V 59.3551 h -10.233"
       style="fill:#ffffff;fill-opacity:1;fill-rule:nonzero;stroke:none;stroke-width:0.1"
       id="path42" />
    <path
       d="M 542.058,59.3539 V 0 h 40.336 V 9.63594 H 552.291 V 26.0102 h 23.196 v 9.6359 H 552.291 V 49.718 h 29.507 v 9.6359 h -39.74"
       style="fill:#ffffff;fill-opacity:1;fill-rule:nonzero;stroke:none;stroke-width:0.1"
       id="path44" />
    <path
       d="M 657.269,59.3539 644.392,20.893 631.089,59.3539 h -4.776 L 616.676,20.893 601.838,59.3539 H 590.837 L 614.033,0 h 6.054 L 629.725,34.8781 641.236,0 h 6.227 l 19.954,59.3539 h -10.148"
       style="fill:#ffffff;fill-opacity:1;fill-rule:nonzero;stroke:none;stroke-width:0.1"
       id="path46" />
    <path
       d="M 0,142.115 V 132.37 H 16.4449 V 82.0922 H 26.793 V 132.37 h 16.5582 v 9.745 H 0"
       style="fill:#ffffff;fill-opacity:1;fill-rule:nonzero;stroke:none;stroke-width:0.1"
       id="path48" />
    <path
       d="M 68.102,142.115 H 57.7527 V 82.0922 H 68.102 v 60.0228"
       style="fill:#ffffff;fill-opacity:1;fill-rule:nonzero;stroke:none;stroke-width:0.1"
       id="path50" />
    <path
       d="M 104.754,82.0922 V 142.115 H 94.4047 V 115.898 H 74.3188 v -9.831 H 94.4047 V 82.0922 h 10.3493"
       style="fill:#ffffff;fill-opacity:1;fill-rule:nonzero;stroke:none;stroke-width:0.1"
       id="path52" />
    <path
       d="m 126.486,82.0922 h 10.349 V 142.115 H 126.486 V 82.0922"
       style="fill:#ffffff;fill-opacity:1;fill-rule:nonzero;stroke:none;stroke-width:0.1"
       id="path54" />
    <path
       d="m 168.943,142.074 -0.027,0.041 H 158.567 V 82.0922 h 10.349 l 0.027,59.9818"
       style="fill:#ffffff;fill-opacity:1;fill-rule:nonzero;stroke:none;stroke-width:0.1"
       id="path56" />
    <path
       d="M 207.12,82.0922 V 142.115 H 196.771 V 99.7707 l -21.612,32.8533 v -17.612 l 21.612,-32.9198 h 10.349"
       style="fill:#ffffff;fill-opacity:1;fill-rule:nonzero;stroke:none;stroke-width:0.1"
       id="path58" />
    <path
       d="m 226.781,82.0922 h 10.349 v 32.4258 l 23.112,-32.4258 h 12.764 l -25.441,34.4098 22.422,25.613 h -12.16 L 237.13,117.709 v 24.406 H 226.781 V 82.0922"
       style="fill:#ffffff;fill-opacity:1;fill-rule:nonzero;stroke:none;stroke-width:0.1"
       id="path60" />
    <path
       d="m 287.407,82.0922 h 10.349 V 142.115 H 287.407 V 82.0922"
       style="fill:#ffffff;fill-opacity:1;fill-rule:nonzero;stroke:none;stroke-width:0.1"
       id="path62" />
    <path
       d="m 329.935,141.745 -0.022,0.034 H 319.564 V 81.7559 h 10.349 l 0.022,59.9891"
       style="fill:#ffffff;fill-opacity:1;fill-rule:nonzero;stroke:none;stroke-width:0.1"
       id="path64" />
    <path
       d="M 368.041,82.0922 V 142.115 H 357.692 V 99.7707 l -21.616,32.8603 v -17.612 l 21.616,-32.9268 h 10.349"
       style="fill:#ffffff;fill-opacity:1;fill-rule:nonzero;stroke:none;stroke-width:0.1"
       id="path66" />
    <path
       d="m 399.431,82.0922 h 21.474 c 7.416,0 12.418,4.2258 12.418,12.3316 v 17.9182 h -19.921 v -9.745 h 9.228 v -8.2591 c 0,-1.552 -0.604,-2.5012 -1.984,-2.5012 h -22.94 V 132.37 h 22.94 c 1.38,0 1.984,-0.949 1.984,-2.415 v -5.174 h 10.693 v 5.002 c 0,8.106 -5.002,12.332 -12.418,12.332 h -21.474 c -7.072,0 -12.764,-4.226 -12.764,-12.332 V 94.4238 c 0,-8.1058 5.692,-12.3316 12.764,-12.3316"
       style="fill:#ffffff;fill-opacity:1;fill-rule:nonzero;stroke:none;stroke-width:0.1"
       id="path68" />
    <path
       d="m 264.524,177.39 v 6.409 c 2.703,-0.126 6.221,0.816 6.221,-3.205 0,-4.021 -3.518,-3.079 -6.221,-3.204 z m 2.137,10.179 h -7.005 v -22.682 h 4.868 v 8.733 h 3.55 c 5.059,0.157 7.855,2.859 7.855,6.974 0,5.75 -4.242,6.943 -9.268,6.975"
       style="fill:#ffffff;fill-opacity:1;fill-rule:nonzero;stroke:none;stroke-width:0.1"
       id="path70" />
    <path
       d="m 290.003,177.798 h -4.084 v 6.001 h 4.084 c 2.136,-0.032 3.392,-0.88 3.392,-2.891 0,-2.011 -1.256,-3.078 -3.392,-3.11 z m 8.011,-7.54 c -0.408,3.142 -0.408,5.435 -4.147,5.844 v 0.062 c 2.796,0.598 4.712,2.545 4.712,5.499 0,4.618 -3.989,5.875 -7.885,5.905 h -9.645 v -22.681 h 4.87 v 9.142 h 5.152 c 1.602,-0.063 1.917,-1.792 2.042,-3.048 0.22,-2.042 0.44,-4.085 0.848,-6.094 h 5.373 c -0.912,1.256 -1.1,3.927 -1.32,5.371"
       style="fill:#ffffff;fill-opacity:1;fill-rule:nonzero;stroke:none;stroke-width:0.1"
       id="path72" />
    <path
       d="m 314.695,167.933 c -4.806,0 -5.717,4.399 -5.717,8.294 0,3.896 0.911,8.294 5.717,8.294 4.807,0 5.718,-4.398 5.718,-8.294 0,-3.895 -0.911,-8.294 -5.718,-8.294 z m 0,20.106 c -7.508,0 -10.9,-5.119 -10.9,-11.812 0,-6.691 3.392,-11.812 10.9,-11.812 7.509,0 10.902,5.121 10.902,11.812 0,6.693 -3.393,11.812 -10.902,11.812"
       style="fill:#ffffff;fill-opacity:1;fill-rule:nonzero;stroke:none;stroke-width:0.1"
       id="path74" />
    <path
       d="m 360.595,173.463 3.331,9.676 h 0.063 l 3.11,-9.676 z m 6.378,14.105 h -5.78 l -8.199,-22.682 h 4.649 l 1.697,4.807 h 8.984 l 1.634,-4.807 h 4.901 l -7.886,22.682"
       style="fill:#ffffff;fill-opacity:1;fill-rule:nonzero;stroke:none;stroke-width:0.1"
       id="path76" />
    <path
       d="m 387.048,168.656 h -2.514 v 15.142 h 2.514 c 5.78,0.063 6.628,-3.958 6.628,-7.571 0,-3.613 -0.848,-7.634 -6.628,-7.571 z m 0.345,18.913 h -7.728 v -22.683 h 7.728 c 7.069,-0.063 11.467,3.456 11.467,11.341 0,7.886 -4.398,11.405 -11.467,11.342"
       style="fill:#ffffff;fill-opacity:1;fill-rule:nonzero;stroke:none;stroke-width:0.1"
       id="path78" />
    <path
       d="m 210.709,168.657 h -3.801 v 6.031 h 3.801 c 2.294,0 3.865,-0.409 3.865,-3.016 0,-2.608 -1.571,-3.015 -3.865,-3.015 z m -3.8,15.141 h 3.8 c 2.043,0 3.173,-0.847 3.173,-2.67 0,-1.822 -1.13,-2.67 -3.173,-2.67 h -3.8 z m 7.853,-7.13 v 0.062 c 2.263,0.754 3.99,2.482 3.99,4.964 0,4.43 -4.146,6.126 -8.199,5.875 h -8.514 v -22.683 h 8.577 c 3.487,-0.251 9.142,1.382 9.142,5.875 0,3.33 -2.137,5.309 -4.996,5.907"
       style="fill:#ffffff;fill-opacity:1;fill-rule:nonzero;stroke:none;stroke-width:0.1"
       id="path80" />
    <path
       d="m 79.9895,168.656 h -2.5137 v 15.142 h 2.5137 c 5.7804,0.063 6.6285,-3.958 6.6285,-7.571 0,-3.613 -0.8481,-7.634 -6.6285,-7.571 z m 0.3449,18.913 H 72.607 v -22.683 h 7.7274 c 7.0695,-0.063 11.4676,3.456 11.4676,11.341 0,7.886 -4.3981,11.405 -11.4676,11.342"
       style="fill:#ffffff;fill-opacity:1;fill-rule:nonzero;stroke:none;stroke-width:0.1"
       id="path82" />
    <path
       d="m 17.8492,181.097 c 0,4.555 -3.4246,6.942 -7.8222,6.942 -4.64966,0 -9.425437,-2.293 -9.425437,-7.476 0,-4.022 4.335937,-5.467 7.508987,-6.252 1.94725,-0.503 5.18325,-0.691 5.18325,-3.361 0,-2.42 -2.5758,-3.016 -4.52388,-3.016 -2.54453,0 -3.98984,1.696 -3.80156,4.209 H 0.00507813 C -0.152734,166.426 3.52305,164.415 8.70703,164.415 c 4.86997,0 9.77067,1.948 9.77067,7.571 0,4.555 -5.0894,5.53 -8.54567,6.409 -1.94726,0.472 -4.14648,0.754 -4.14648,3.205 0,1.979 1.82226,2.921 3.61289,2.921 2.35626,0 3.58086,-1.131 3.76956,-3.424 h 4.6812"
       style="fill:#ffffff;fill-opacity:1;fill-rule:nonzero;stroke:none;stroke-width:0.1"
       id="path84" />
    <path
       d="m 22.6242,183.799 h 6.7539 v -18.913 h 4.8699 v 18.913 h 6.7547 v 3.769 H 22.6242 v -3.769"
       style="fill:#ffffff;fill-opacity:1;fill-rule:nonzero;stroke:none;stroke-width:0.1"
       id="path86" />
    <path
       d="m 60.9512,187.569 v -12.315 c 0,-3.833 -0.1883,-7.32 -4.9633,-7.32 -4.775,0 -4.9637,3.487 -4.9637,7.32 v 12.315 h -4.8695 v -14.201 c 0,-6.032 4.3348,-8.953 9.8332,-8.953 5.4969,0 9.8332,2.921 9.8332,8.953 v 14.201 h -4.8699"
       style="fill:#ffffff;fill-opacity:1;fill-rule:nonzero;stroke:none;stroke-width:0.1"
       id="path88" />
    <path
       d="m 97.4246,164.886 h 15.5514 v 3.77 h -10.682 v 6.064 h 9.676 v 3.769 h -9.676 v 5.31 h 10.336 v 3.769 H 97.4246 v -22.682"
       style="fill:#ffffff;fill-opacity:1;fill-rule:nonzero;stroke:none;stroke-width:0.1"
       id="path90" />
    <path
       d="m 139.71,164.886 v 22.682 h -4.555 v -17.781 l -0.063,-0.063 -8.639,17.844 h -7.226 v -22.682 h 4.555 v 18.787 l 0.063,0.063 8.954,-18.85 h 6.911"
       style="fill:#ffffff;fill-opacity:1;fill-rule:nonzero;stroke:none;stroke-width:0.1"
       id="path92" />
    <path
       d="m 144.36,183.799 h 6.754 v -18.913 h 4.87 v 18.913 h 6.754 v 3.769 H 144.36 v -3.769"
       style="fill:#ffffff;fill-opacity:1;fill-rule:nonzero;stroke:none;stroke-width:0.1"
       id="path94" />
    <path
       d="m 184.446,181.097 c 0,4.555 -3.424,6.942 -7.822,6.942 -4.649,0 -9.425,-2.293 -9.425,-7.476 0,-4.022 4.336,-5.467 7.509,-6.252 1.947,-0.503 5.183,-0.691 5.183,-3.361 0,-2.42 -2.576,-3.016 -4.524,-3.016 -2.544,0 -3.99,1.696 -3.801,4.209 h -4.964 c -0.157,-5.717 3.518,-7.728 8.702,-7.728 4.87,0 9.771,1.948 9.771,7.571 0,4.555 -5.089,5.53 -8.546,6.409 -1.947,0.472 -4.146,0.754 -4.146,3.205 0,1.979 1.822,2.921 3.613,2.921 2.356,0 3.581,-1.131 3.769,-3.424 h 4.681"
       style="fill:#ffffff;fill-opacity:1;fill-rule:nonzero;stroke:none;stroke-width:0.1"
       id="path96" />
    <path
       d="m 231.256,164.886 h 4.869 v 7.415 l 7.634,15.267 h -4.995 l -4.775,-10.398 -4.682,10.398 h -5.685 l 7.634,-15.267 v -7.415"
       style="fill:#ffffff;fill-opacity:1;fill-rule:nonzero;stroke:none;stroke-width:0.1"
       id="path98" />
    <path
       d="m 337.975,164.886 h 5.309 l 8.356,22.682 h -4.806 l -5.938,-17.875 h -0.063 l -5.906,17.875 h -5.309 l 8.357,-22.682"
       style="fill:#ffffff;fill-opacity:1;fill-rule:nonzero;stroke:none;stroke-width:0.1"
       id="path100" />
    <path
       d="m 409.478,187.568 h -4.87 v -22.682 h 4.87 v 22.682"
       style="fill:#ffffff;fill-opacity:1;fill-rule:nonzero;stroke:none;stroke-width:0.1"
       id="path102" />
    <path
       d="m 432.694,181.097 c 0,4.555 -3.424,6.942 -7.822,6.942 -4.649,0 -9.425,-2.293 -9.425,-7.476 0,-4.022 4.336,-5.467 7.509,-6.252 1.947,-0.503 5.183,-0.691 5.183,-3.361 0,-2.42 -2.576,-3.016 -4.524,-3.016 -2.544,0 -3.99,1.696 -3.801,4.209 h -4.964 c -0.157,-5.717 3.518,-7.728 8.702,-7.728 4.87,0 9.771,1.948 9.771,7.571 0,4.555 -5.089,5.53 -8.546,6.409 -1.947,0.472 -4.146,0.754 -4.146,3.205 0,1.979 1.822,2.921 3.613,2.921 2.356,0 3.581,-1.131 3.769,-3.424 h 4.681"
       style="fill:#ffffff;fill-opacity:1;fill-rule:nonzero;stroke:none;stroke-width:0.1"
       id="path104" />
    <path
       d="M 492.067,174.951 479.7,188.099 467.388,174.951 h 7.215 V 65.4949 h 10.248 l -0.015,109.4561 h 7.231"
       style="fill:#ffffff;fill-opacity:1;fill-rule:nonzero;stroke:none;stroke-width:0.1"
       id="path106" />
  </g>
</svg>
