<?xml version="1.0" encoding="UTF-8" standalone="no"?>
<!-- Created with Inkscape (http://www.inkscape.org/) -->

<svg
   version="1.1"
   id="svg2"
   width="889.89331"
   height="250.8"
   viewBox="0 0 889.89331 250.8"
   sodipodi:docname="LOGO_PRO_THINKING_4C.eps"
   xmlns:inkscape="http://www.inkscape.org/namespaces/inkscape"
   xmlns:sodipodi="http://sodipodi.sourceforge.net/DTD/sodipodi-0.dtd"
   xmlns="http://www.w3.org/2000/svg"
   xmlns:svg="http://www.w3.org/2000/svg">
  <defs
     id="defs6" />
  <sodipodi:namedview
     id="namedview4"
     pagecolor="#ffffff"
     bordercolor="#000000"
     borderopacity="0.25"
     inkscape:showpageshadow="2"
     inkscape:pageopacity="0.0"
     inkscape:pagecheckerboard="0"
     inkscape:deskcolor="#d1d1d1" />
  <g
     id="g8"
     inkscape:groupmode="layer"
     inkscape:label="ink_ext_XXXXXX"
     transform="matrix(1.3333333,0,0,-1.3333333,0,250.8)">
    <g
       id="g10"
       transform="scale(0.1)">
      <path
         d="M 149.711,0 H 252.039 V 593.539 H 149.711 V 0"
         style="fill:#231f20;fill-opacity:1;fill-rule:nonzero;stroke:none"
         id="path12" />
      <path
         d="M 466.941,593.539 V 0 h 102.332 l -0.031,593.539 H 466.941"
         style="fill:#231f20;fill-opacity:1;fill-rule:nonzero;stroke:none"
         id="path14" />
      <path
         d="M 844.723,593.539 V 174.82 L 630.711,500.148 V 325.988 L 844.723,0 h 102.34 v 593.539 h -102.34"
         style="fill:#231f20;fill-opacity:1;fill-rule:nonzero;stroke:none"
         id="path16" />
      <path
         d="m 1305.21,0 h 161.18 c 74.19,0 126.21,41.7891 126.21,121.949 V 471.59 c 0,80.16 -52.02,121.949 -126.21,121.949 h -161.18 v -96.367 h 159.47 c 12.79,0 18.76,-9.383 18.76,-23.871 V 121.102 c 0,-15.352 -5.97,-24.7426 -18.76,-24.7426 H 1305.21 V 0"
         style="fill:#231f20;fill-opacity:1;fill-rule:nonzero;stroke:none"
         id="path18" />
      <path
         d="m 1141.48,0 h 102.33 V 593.539 H 1141.48 V 0"
         style="fill:#231f20;fill-opacity:1;fill-rule:nonzero;stroke:none"
         id="path20" />
      <path
         d="m 1966.81,96.3711 h -72.33 c -12.79,0 -18.76,9.3789 -18.76,24.7309 V 593.539 H 1766.57 V 121.949 C 1766.57,41.7891 1822.85,0 1892.78,0 h 74.03 v 96.3711"
         style="fill:#231f20;fill-opacity:1;fill-rule:nonzero;stroke:none"
         id="path22" />
      <path
         d="m 2228.46,121.949 v 471.59 h -108.3 V 121.102 c 0,-15.352 -5.97,-24.7309 -19.62,-24.7309 h -72.32 V 0 h 74.88 c 74.19,0 125.36,41.7891 125.36,121.949"
         style="fill:#231f20;fill-opacity:1;fill-rule:nonzero;stroke:none"
         id="path24" />
      <path
         d="m 2646.63,0 h 62.42 c 74.19,0 126.21,41.7891 126.21,121.949 v 100.629 c 0,80.16 -46.5,121.094 -120.68,121.094 h -211.53 l 0.47,129.629 c 0,14.488 5.97,23.871 18.77,23.871 h 62.59 v 96.367 h -64.3 c -69.93,0 -126.21,-41.789 -126.21,-121.949 V 369.262 c 0,-80.172 61.81,-121.953 131.74,-121.953 h 199.27 l 1.57,-126.207 c 0,-15.352 -6.82,-24.7426 -19.61,-24.7426 h -60.71 V 0"
         style="fill:#231f20;fill-opacity:1;fill-rule:nonzero;stroke:none"
         id="path26" />
      <path
         d="m 2729.98,422.129 h 105.75 v 49.461 c 0,80.16 -48.61,121.949 -122.81,121.949 h -66.68 V 497.18 h 64.98 c 12.79,0 18.76,-9.391 18.76,-23.879 v -51.172"
         style="fill:#231f20;fill-opacity:1;fill-rule:nonzero;stroke:none"
         id="path28" />
      <path
         d="m 2527.78,0 h 57.49 v 96.3594 h -54.93 c -13.65,0 -19.62,9.3906 -19.62,24.7426 v 46.046 H 2404.98 V 121.949 C 2404.98,41.7891 2453.59,0 2527.78,0"
         style="fill:#231f20;fill-opacity:1;fill-rule:nonzero;stroke:none"
         id="path30" />
      <path
         d="M 2962.31,593.539 V 497.18 h 162.88 V 0 h 102.33 v 497.18 h 163.74 v 96.359 h -428.95"
         style="fill:#231f20;fill-opacity:1;fill-rule:nonzero;stroke:none"
         id="path32" />
      <path
         d="m 3858.55,0 h 126.22 l -173.09,222.578 h 46.9 c 74.19,0 126.21,40.934 126.21,121.094 V 471.59 c 0,80.16 -52.02,121.949 -126.21,121.949 h -161.17 v -96.367 h 178.24 V 318.941 H 3697.41 V 212.34 L 3858.55,0"
         style="fill:#231f20;fill-opacity:1;fill-rule:nonzero;stroke:none"
         id="path34" />
      <path
         d="m 3533.68,0 h 102.33 V 593.539 H 3533.68 V 0"
         style="fill:#231f20;fill-opacity:1;fill-rule:nonzero;stroke:none"
         id="path36" />
      <path
         d="M 4459.8,593.539 4335.29,372.672 4203.97,593.539 h -119.4 L 4284.12,271.191 V 0 h 103.19 v 271.191 l 184.21,322.348 H 4459.8"
         style="fill:#231f20;fill-opacity:1;fill-rule:nonzero;stroke:none"
         id="path38" />
      <path
         d="M 4746.04,593.551 V 0.0117188 h 102.33 L 4848.53,593.309 v 0.242 h -102.49"
         style="fill:#203864;fill-opacity:1;fill-rule:nonzero;stroke:none"
         id="path40" />
      <path
         d="M 5123.82,593.551 V 174.832 L 4910,499.879 V 325.719 L 5123.82,0.0117188 h 102.33 V 593.551 h -102.33"
         style="fill:#203864;fill-opacity:1;fill-rule:nonzero;stroke:none"
         id="path42" />
      <path
         d="M 5420.58,593.539 V 0 h 403.36 V 96.3594 H 5522.91 V 260.102 h 231.96 v 96.359 H 5522.91 V 497.18 h 295.07 v 96.359 h -397.4"
         style="fill:#203864;fill-opacity:1;fill-rule:nonzero;stroke:none"
         id="path44" />
      <path
         d="M 6572.69,593.539 6443.92,208.93 6310.89,593.539 h -47.76 L 6166.76,208.93 6018.38,593.539 H 5908.37 L 6140.33,0 h 60.54 L 6297.25,348.781 6412.36,0 h 62.27 l 199.54,593.539 h -101.48"
         style="fill:#203864;fill-opacity:1;fill-rule:nonzero;stroke:none"
         id="path46" />
      <path
         d="M 0,1421.15 V 1323.7 H 164.449 V 820.922 H 267.93 V 1323.7 h 165.582 v 97.45 H 0"
         style="fill:#231f20;fill-opacity:1;fill-rule:nonzero;stroke:none"
         id="path48" />
      <path
         d="M 681.02,1421.15 H 577.527 V 820.922 H 681.02 v 600.228"
         style="fill:#231f20;fill-opacity:1;fill-rule:nonzero;stroke:none"
         id="path50" />
      <path
         d="M 1047.54,820.922 V 1421.15 H 944.047 V 1158.98 H 743.188 v -98.31 H 944.047 V 820.922 h 103.493"
         style="fill:#231f20;fill-opacity:1;fill-rule:nonzero;stroke:none"
         id="path52" />
      <path
         d="m 1264.86,820.922 h 103.49 V 1421.15 H 1264.86 V 820.922"
         style="fill:#231f20;fill-opacity:1;fill-rule:nonzero;stroke:none"
         id="path54" />
      <path
         d="m 1689.43,1420.74 -0.27,0.41 H 1585.67 V 820.922 h 103.49 l 0.27,599.818"
         style="fill:#231f20;fill-opacity:1;fill-rule:nonzero;stroke:none"
         id="path56" />
      <path
         d="M 2071.2,820.922 V 1421.15 H 1967.71 V 997.707 l -216.12,328.533 v -176.12 l 216.12,-329.198 h 103.49"
         style="fill:#231f20;fill-opacity:1;fill-rule:nonzero;stroke:none"
         id="path58" />
      <path
         d="m 2267.81,820.922 h 103.49 v 324.258 l 231.12,-324.258 h 127.64 l -254.41,344.098 224.22,256.13 h -121.6 L 2371.3,1177.09 v 244.06 H 2267.81 V 820.922"
         style="fill:#231f20;fill-opacity:1;fill-rule:nonzero;stroke:none"
         id="path60" />
      <path
         d="m 2874.07,820.922 h 103.49 V 1421.15 H 2874.07 V 820.922"
         style="fill:#231f20;fill-opacity:1;fill-rule:nonzero;stroke:none"
         id="path62" />
      <path
         d="m 3299.35,1417.45 -0.22,0.34 H 3195.64 V 817.559 h 103.49 l 0.22,599.891"
         style="fill:#231f20;fill-opacity:1;fill-rule:nonzero;stroke:none"
         id="path64" />
      <path
         d="M 3680.41,820.922 V 1421.15 H 3576.92 V 997.707 l -216.16,328.603 v -176.12 l 216.16,-329.268 h 103.49"
         style="fill:#231f20;fill-opacity:1;fill-rule:nonzero;stroke:none"
         id="path66" />
      <path
         d="m 3994.31,820.922 h 214.74 c 74.16,0 124.18,42.258 124.18,123.316 v 179.182 h -199.21 v -97.45 h 92.28 v -82.591 c 0,-15.52 -6.04,-25.012 -19.84,-25.012 h -229.4 V 1323.7 h 229.4 c 13.8,0 19.84,-9.49 19.84,-24.15 v -51.74 h 106.93 v 50.02 c 0,81.06 -50.02,123.32 -124.18,123.32 h -214.74 c -70.72,0 -127.64,-42.26 -127.64,-123.32 V 944.238 c 0,-81.058 56.92,-123.316 127.64,-123.316"
         style="fill:#231f20;fill-opacity:1;fill-rule:nonzero;stroke:none"
         id="path68" />
      <path
         d="m 2645.24,1773.9 v 64.09 c 27.03,-1.26 62.21,8.16 62.21,-32.05 0,-40.21 -35.18,-30.79 -62.21,-32.04 z m 21.37,101.79 h -70.05 v -226.82 h 48.68 v 87.33 h 35.5 c 50.59,1.57 78.55,28.59 78.55,69.74 0,57.5 -42.42,69.43 -92.68,69.75"
         style="fill:#203864;fill-opacity:1;fill-rule:nonzero;stroke:none"
         id="path70" />
      <path
         d="m 2900.03,1777.98 h -40.84 v 60.01 h 40.84 c 21.36,-0.32 33.92,-8.8 33.92,-28.91 0,-20.11 -12.56,-30.78 -33.92,-31.1 z m 80.11,-75.4 c -4.08,31.42 -4.08,54.35 -41.47,58.44 v 0.62 c 27.96,5.98 47.12,25.45 47.12,54.99 0,46.18 -39.89,58.75 -78.85,59.05 h -96.45 v -226.81 h 48.7 v 91.42 h 51.52 c 16.02,-0.63 19.17,-17.92 20.42,-30.48 2.2,-20.42 4.4,-40.85 8.48,-60.94 h 53.73 c -9.12,12.56 -11,39.27 -13.2,53.71"
         style="fill:#203864;fill-opacity:1;fill-rule:nonzero;stroke:none"
         id="path72" />
      <path
         d="m 3146.95,1679.33 c -48.06,0 -57.17,43.99 -57.17,82.94 0,38.96 9.11,82.94 57.17,82.94 48.07,0 57.18,-43.98 57.18,-82.94 0,-38.95 -9.11,-82.94 -57.18,-82.94 z m 0,201.06 c -75.08,0 -109,-51.19 -109,-118.12 0,-66.91 33.92,-118.12 109,-118.12 75.09,0 109.02,51.21 109.02,118.12 0,66.93 -33.93,118.12 -109.02,118.12"
         style="fill:#203864;fill-opacity:1;fill-rule:nonzero;stroke:none"
         id="path74" />
      <path
         d="m 3605.95,1734.63 33.31,96.76 h 0.63 l 31.1,-96.76 z m 63.78,141.05 h -57.8 l -81.99,-226.82 h 46.49 l 16.97,48.07 h 89.84 l 16.34,-48.07 h 49.01 l -78.86,226.82"
         style="fill:#203864;fill-opacity:1;fill-rule:nonzero;stroke:none"
         id="path76" />
      <path
         d="m 3870.48,1686.56 h -25.14 v 151.42 h 25.14 c 57.8,0.63 66.28,-39.58 66.28,-75.71 0,-36.13 -8.48,-76.34 -66.28,-75.71 z m 3.45,189.13 h -77.28 v -226.83 h 77.28 c 70.69,-0.63 114.67,34.56 114.67,113.41 0,78.86 -43.98,114.05 -114.67,113.42"
         style="fill:#203864;fill-opacity:1;fill-rule:nonzero;stroke:none"
         id="path78" />
      <path
         d="m 2107.09,1686.57 h -38.01 v 60.31 h 38.01 c 22.94,0 38.65,-4.09 38.65,-30.16 0,-26.08 -15.71,-30.15 -38.65,-30.15 z m -38,151.41 h 38 c 20.43,0 31.73,-8.47 31.73,-26.7 0,-18.22 -11.3,-26.7 -31.73,-26.7 h -38 z m 78.53,-71.3 v 0.62 c 22.63,7.54 39.9,24.82 39.9,49.64 0,44.3 -41.46,61.26 -81.99,58.75 h -85.14 v -226.83 h 85.77 c 34.87,-2.51 91.42,13.82 91.42,58.75 0,33.3 -21.37,53.09 -49.96,59.07"
         style="fill:#203864;fill-opacity:1;fill-rule:nonzero;stroke:none"
         id="path80" />
      <path
         d="m 799.895,1686.56 h -25.137 v 151.42 h 25.137 c 57.804,0.63 66.285,-39.58 66.285,-75.71 0,-36.13 -8.481,-76.34 -66.285,-75.71 z m 3.449,189.13 H 726.07 v -226.83 h 77.274 c 70.695,-0.63 114.676,34.56 114.676,113.41 0,78.86 -43.981,114.05 -114.676,113.42"
         style="fill:#203864;fill-opacity:1;fill-rule:nonzero;stroke:none"
         id="path82" />
      <path
         d="m 178.492,1810.97 c 0,45.55 -34.246,69.42 -78.222,69.42 -46.4966,0 -94.25437,-22.93 -94.25437,-74.76 0,-40.22 43.35937,-54.67 75.08987,-62.52 19.4725,-5.03 51.8325,-6.91 51.8325,-33.61 0,-24.2 -25.758,-30.16 -45.2388,-30.16 -25.4453,0 -39.8984,16.96 -38.0156,42.09 H 0.0507813 C -1.52734,1664.26 35.2305,1644.15 87.0703,1644.15 c 48.6997,0 97.7067,19.48 97.7067,75.71 0,45.55 -50.894,55.3 -85.4567,64.09 -19.4726,4.72 -41.4648,7.54 -41.4648,32.05 0,19.79 18.2226,29.21 36.1289,29.21 23.5626,0 35.8086,-11.31 37.6956,-34.24 h 46.812"
         style="fill:#203864;fill-opacity:1;fill-rule:nonzero;stroke:none"
         id="path84" />
      <path
         d="m 226.242,1837.99 h 67.539 v -189.13 h 48.699 v 189.13 h 67.547 v 37.69 H 226.242 v -37.69"
         style="fill:#203864;fill-opacity:1;fill-rule:nonzero;stroke:none"
         id="path86" />
      <path
         d="m 609.512,1875.69 v -123.15 c 0,-38.33 -1.883,-73.2 -49.633,-73.2 -47.75,0 -49.637,34.87 -49.637,73.2 v 123.15 h -48.695 v -142.01 c 0,-60.32 43.348,-89.53 98.332,-89.53 54.969,0 98.332,29.21 98.332,89.53 v 142.01 h -48.699"
         style="fill:#203864;fill-opacity:1;fill-rule:nonzero;stroke:none"
         id="path88" />
      <path
         d="m 974.246,1648.86 h 155.514 v 37.7 h -106.82 v 60.64 h 96.76 v 37.69 h -96.76 v 53.1 h 103.36 v 37.69 H 974.246 v -226.82"
         style="fill:#203864;fill-opacity:1;fill-rule:nonzero;stroke:none"
         id="path90" />
      <path
         d="m 1397.1,1648.86 v 226.82 h -45.55 v -177.81 l -0.63,-0.63 -86.39,178.44 h -72.26 v -226.82 h 45.55 v 187.87 l 0.63,0.63 89.54,-188.5 h 69.11"
         style="fill:#203864;fill-opacity:1;fill-rule:nonzero;stroke:none"
         id="path92" />
      <path
         d="m 1443.6,1837.99 h 67.54 v -189.13 h 48.7 v 189.13 h 67.54 v 37.69 H 1443.6 v -37.69"
         style="fill:#203864;fill-opacity:1;fill-rule:nonzero;stroke:none"
         id="path94" />
      <path
         d="m 1844.46,1810.97 c 0,45.55 -34.24,69.42 -78.22,69.42 -46.49,0 -94.25,-22.93 -94.25,-74.76 0,-40.22 43.36,-54.67 75.09,-62.52 19.47,-5.03 51.83,-6.91 51.83,-33.61 0,-24.2 -25.76,-30.16 -45.24,-30.16 -25.44,0 -39.9,16.96 -38.01,42.09 h -49.64 c -1.57,-57.17 35.18,-77.28 87.02,-77.28 48.7,0 97.71,19.48 97.71,75.71 0,45.55 -50.89,55.3 -85.46,64.09 -19.47,4.72 -41.46,7.54 -41.46,32.05 0,19.79 18.22,29.21 36.13,29.21 23.56,0 35.81,-11.31 37.69,-34.24 h 46.81"
         style="fill:#203864;fill-opacity:1;fill-rule:nonzero;stroke:none"
         id="path96" />
      <path
         d="m 2312.56,1648.86 h 48.69 v 74.15 l 76.34,152.67 h -49.95 l -47.75,-103.98 -46.82,103.98 h -56.85 l 76.34,-152.67 v -74.15"
         style="fill:#203864;fill-opacity:1;fill-rule:nonzero;stroke:none"
         id="path98" />
      <path
         d="m 3379.75,1648.86 h 53.09 l 83.56,226.82 h -48.06 l -59.38,-178.75 h -0.63 l -59.06,178.75 h -53.09 l 83.57,-226.82"
         style="fill:#203864;fill-opacity:1;fill-rule:nonzero;stroke:none"
         id="path100" />
      <path
         d="m 4094.78,1875.68 h -48.7 v -226.82 h 48.7 v 226.82"
         style="fill:#203864;fill-opacity:1;fill-rule:nonzero;stroke:none"
         id="path102" />
      <path
         d="m 4326.94,1810.97 c 0,45.55 -34.24,69.42 -78.22,69.42 -46.49,0 -94.25,-22.93 -94.25,-74.76 0,-40.22 43.36,-54.67 75.09,-62.52 19.47,-5.03 51.83,-6.91 51.83,-33.61 0,-24.2 -25.76,-30.16 -45.24,-30.16 -25.44,0 -39.9,16.96 -38.01,42.09 h -49.64 c -1.57,-57.17 35.18,-77.28 87.02,-77.28 48.7,0 97.71,19.48 97.71,75.71 0,45.55 -50.89,55.3 -85.46,64.09 -19.47,4.72 -41.46,7.54 -41.46,32.05 0,19.79 18.22,29.21 36.13,29.21 23.56,0 35.81,-11.31 37.69,-34.24 h 46.81"
         style="fill:#203864;fill-opacity:1;fill-rule:nonzero;stroke:none"
         id="path104" />
      <path
         d="M 4920.67,1749.51 4797,1880.99 4673.88,1749.51 h 72.15 V 654.949 h 102.48 l -0.15,1094.561 h 72.31"
         style="fill:#203864;fill-opacity:1;fill-rule:nonzero;stroke:none"
         id="path106" />
    </g>
  </g>
</svg>
